<svg width="45" height="45" viewBox="0 0 45 45" fill="none" xmlns="http://www.w3.org/2000/svg">
<g clip-path="url(#clip0_1_2)">
<path fill-rule="evenodd" clip-rule="evenodd" d="M19.8805 13.9867C19.3809 14.378 19.0485 14.9391 19.0485 15.8611C19.0485 17.027 18.1423 17.9722 17.0243 17.9722C15.9063 17.9722 15 17.027 15 15.8611C15 13.6164 15.9275 11.8025 17.4495 10.6105C18.9042 9.47113 20.7625 9 22.591 9C24.773 9 26.6133 9.68438 27.9424 10.995C29.2612 12.2954 29.8877 14.0269 29.9859 15.7566C30.1786 19.1421 28.3885 22.8672 25.1135 24.8189C24.8157 24.9964 24.6315 25.1419 24.52 25.2466C24.7738 26.0758 24.5159 27.0172 23.8125 27.5722C22.921 28.2758 21.6516 28.0924 20.9769 27.1626C20.9769 27.1626 20.9779 27.1641 20.9748 27.1599L20.9726 27.1569C20.487 26.4757 20.2935 25.5827 20.3921 24.7456C20.5615 23.3069 21.5236 22.0954 23.105 21.1532C25.0519 19.9927 26.0454 17.7803 25.9446 16.0065C25.8963 15.1565 25.6068 14.5027 25.1608 14.0629C24.725 13.6332 23.9515 13.2222 22.591 13.2222C21.3726 13.2222 20.4475 13.5427 19.8805 13.9867Z" fill="white"/>
<path d="M22.5 36C24.4329 36 26 34.6568 26 33C26 31.3432 24.4329 30 22.5 30C20.5671 30 19 31.3432 19 33C19 34.6568 20.5671 36 22.5 36Z" fill="white"/>
<path fill-rule="evenodd" clip-rule="evenodd" d="M0 22.5C0 10.0736 10.0736 0 22.5 0C34.9263 0 45 10.0736 45 22.5C45 34.9263 34.9263 45 22.5 45C10.0736 45 0 34.9263 0 22.5ZM22.5 4.09091C12.3329 4.09091 4.09091 12.3329 4.09091 22.5C4.09091 32.6671 12.3329 40.9091 22.5 40.9091C32.6671 40.9091 40.9091 32.6671 40.9091 22.5C40.9091 12.3329 32.6671 4.09091 22.5 4.09091Z" fill="#444444"/>
</g>
<defs>
<clipPath id="clip0_1_2">
<rect width="45" height="45" fill="white"/>
</clipPath>
</defs>
</svg>
