<svg width="45" height="45" viewBox="0 0 45 45" fill="none" xmlns="http://www.w3.org/2000/svg">
<g clip-path="url(#clip0_1_2)">
<path fill-rule="evenodd" clip-rule="evenodd" d="M20.2298 15.1993C19.7968 15.5288 19.5087 16.0014 19.5087 16.7777C19.5087 17.7596 18.7233 18.5555 17.7544 18.5555C16.7855 18.5555 16 17.7596 16 16.7777C16 14.8875 16.8038 13.36 18.1229 12.3562C19.3837 11.3967 20.9942 11 22.5789 11C24.4699 11 26.0648 11.5763 27.2167 12.68C28.3597 13.7751 28.9027 15.2331 28.9878 16.6897C29.1548 19.5408 27.6034 22.6776 24.765 24.3212C24.5069 24.4707 24.3473 24.5932 24.2506 24.6813C24.4706 25.3797 24.2471 26.1724 23.6375 26.6397C22.8648 27.2323 21.7647 27.0778 21.18 26.2948C21.18 26.2948 21.1808 26.2961 21.1782 26.2925L21.1763 26.2901C20.7554 25.7164 20.5877 24.9644 20.6731 24.2595C20.82 23.0479 21.6538 22.0277 23.0243 21.2343C24.7117 20.257 25.5727 18.3939 25.4854 16.9002C25.4434 16.1844 25.1925 15.6339 24.8061 15.2635C24.4283 14.9016 23.758 14.5555 22.5789 14.5555C21.5229 14.5555 20.7212 14.8255 20.2298 15.1993Z" fill="white"/>
<path d="M22 34C23.6568 34 25 32.8807 25 31.5C25 30.1193 23.6568 29 22 29C20.3432 29 19 30.1193 19 31.5C19 32.8807 20.3432 34 22 34Z" fill="white"/>
<path fill-rule="evenodd" clip-rule="evenodd" d="M0 22.5C0 10.0736 10.0736 0 22.5 0C34.9263 0 45 10.0736 45 22.5C45 34.9263 34.9263 45 22.5 45C10.0736 45 0 34.9263 0 22.5ZM22.5 4.09091C12.3329 4.09091 4.09091 12.3329 4.09091 22.5C4.09091 32.6671 12.3329 40.9091 22.5 40.9091C32.6671 40.9091 40.9091 32.6671 40.9091 22.5C40.9091 12.3329 32.6671 4.09091 22.5 4.09091Z" fill="#444444"/>
</g>
<defs>
<clipPath id="clip0_1_2">
<rect width="45" height="45" fill="white"/>
</clipPath>
</defs>
</svg>
