<svg width="128" height="46" viewBox="0 0 128 46" fill="none" xmlns="http://www.w3.org/2000/svg">
<path d="M57.1325 4.8421L63.9462 9.47837V25.3033C61.5519 21.8811 57.1325 20.4908 57.1325 20.4908V4.8421Z" fill="#FFFEFE"/>
<path d="M57.8573 24.3024C57.8573 24.3024 55.8733 23.3055 53.2174 23.7174V8.16949H53.867V22.938C53.867 22.938 56.7269 22.903 57.8573 24.3024Z" fill="#FFFEFE"/>
<path d="M60.5393 23.7959C59.5016 22.3287 56.2356 21.1874 56.2356 21.1874V6.59494L54.8788 6.06729V21.9502C54.8788 21.9502 56.2736 22.1213 56.9703 22.3166C59.3763 22.9928 60.5393 23.7959 60.5393 23.7959Z" fill="#FFFEFE"/>
<path d="M71.657 4.8421L64.8433 9.47837V25.3033C67.2376 21.8811 71.657 20.4908 71.657 20.4908V4.8421Z" fill="#FFFEFE"/>
<path d="M70.9322 24.3024C70.9322 24.3024 72.9164 23.3055 75.5721 23.7174V8.16949H74.9225V22.938C74.9225 22.938 72.0625 22.903 70.9322 24.3024Z" fill="#FFFEFE"/>
<path d="M68.2501 23.7959C69.2878 22.3287 72.5538 21.1874 72.5538 21.1874V6.59494L73.9106 6.06729V21.9502C73.9106 21.9502 72.5158 22.1213 71.8191 22.3166C69.413 22.9928 68.2501 23.7959 68.2501 23.7959Z" fill="#FFFEFE"/>
<path d="M8.81025 37.7831C8.7444 37.7831 8.69172 37.7307 8.69172 37.6653V36.2641C8.69172 36.1986 8.7444 36.1463 8.81025 36.1463H11.826C11.8918 36.1463 11.9445 36.1986 11.9445 36.2641V38.32C11.9445 40.245 10.9041 41.0569 8.94194 41.0569C7.11142 41.0569 5.91302 40.3366 5.91302 38.32V34.8761C5.91302 32.9773 6.97973 32.1654 8.94194 32.1654C10.7856 32.1654 11.9445 32.8725 11.9445 34.8761V35.151C11.9445 35.2165 11.8918 35.2689 11.826 35.2689H10.3115C10.2457 35.2689 10.193 35.2165 10.193 35.151V34.9808C10.193 34.182 9.67941 33.9201 9.00778 33.9201H8.84975C8.41517 33.9201 8.12545 34.038 7.92791 34.2999C7.74354 34.5487 7.6777 34.8761 7.6777 35.3082V37.901C7.6777 39.0402 8.29665 39.289 8.84975 39.289H9.00778C9.8111 39.289 10.193 38.7391 10.193 37.901V37.7831H8.81025ZM6.71635 38.2284C6.71635 39.6819 7.42748 40.2188 8.92877 40.2188C10.5091 40.2188 11.1544 39.564 11.1544 37.9534V36.9712C11.1544 36.932 11.128 36.8796 11.1017 36.8796H9.27117C9.15264 36.8796 9.17898 37.0498 9.27117 37.0498H10.9963V37.9534C10.9963 39.3545 10.4564 40.0747 8.92877 40.0747C7.66453 40.0747 6.87438 39.6295 6.87438 38.2284V35.0725C6.87438 33.7237 7.49333 33.1213 8.92877 33.1213C9.99547 33.1213 10.97 33.7106 10.891 34.6142C10.891 34.7189 11.0358 34.7451 11.0622 34.6273C11.0622 33.4749 10.0086 32.9773 8.92877 32.9773C7.61185 32.9773 6.71635 33.4487 6.71635 35.0725V38.2284ZM19.1217 37.5081C18.9373 37.8879 18.674 38.176 18.3052 38.3462L19.4114 40.7688C19.4509 40.8473 19.3983 40.9259 19.3193 40.9259H17.6994C17.6468 40.9259 17.6204 40.8997 17.6073 40.8604L16.5801 38.6343H15.9084V40.8081C15.9084 40.8735 15.8558 40.9259 15.7899 40.9259H14.2755C14.2228 40.9259 14.1833 40.8735 14.1833 40.8081V32.4011C14.1833 32.3356 14.2228 32.2833 14.2755 32.2833H17.0146C18.4764 32.2833 19.3588 33.1082 19.3588 34.6403V36.2903C19.3588 36.7486 19.2797 37.1808 19.1217 37.5081ZM17.6336 35.8844V35.0332C17.6336 34.1165 17.2912 34.0249 16.2903 34.0249H15.9084V36.9189H16.2903C17.12 36.9189 17.6073 36.9058 17.6336 35.8844ZM15.1446 40.1271V37.8879H17.041L18.1472 40.1533C18.1735 40.2188 18.3316 40.1926 18.2921 40.0747L17.1858 37.8486C18.213 37.7046 18.5686 37.1677 18.5686 36.1986V34.5618C18.5686 33.1213 17.2517 33.0035 16.8434 33.0035H15.0656C15.0393 33.0035 14.9866 33.0428 14.9866 33.0821V40.1271C14.9866 40.2188 15.1446 40.2188 15.1446 40.1271ZM18.4106 34.5618V36.1986C18.4106 37.5343 17.5546 37.7177 16.7249 37.7177H15.1446V33.1737H16.8434C18.2657 33.1737 18.4106 34.1296 18.4106 34.5618ZM23.3359 32.3618C23.349 32.3225 23.3754 32.2833 23.428 32.2833H25.061C25.1137 32.2833 25.14 32.3225 25.1532 32.3618L27.4315 40.7819C27.4446 40.8604 27.392 40.9259 27.313 40.9259H25.8117C25.7722 40.9259 25.7326 40.8997 25.7195 40.8473L25.2059 39.014H23.2832L22.7828 40.8473C22.7696 40.8997 22.7432 40.9259 22.6906 40.9259H21.1761C21.0971 40.9259 21.0444 40.8604 21.0576 40.7819L23.3359 32.3618ZM23.7046 37.3903H24.7976L24.2314 35.4129L23.7046 37.3903ZM25.7326 38.1629L26.3384 40.1271C26.3648 40.2057 26.5096 40.1926 26.4701 40.0878L24.3631 33.1213C24.3235 32.9511 24.0997 32.938 24.0602 33.1213L22.0189 40.0878C21.9794 40.1795 22.1243 40.2188 22.1638 40.1402L22.7432 38.1629H25.7326ZM22.7828 37.9926L24.2182 33.1737L25.68 37.9926H22.7828ZM36.5445 32.2833C36.6104 32.2833 36.6631 32.3356 36.6631 32.4011V40.8081C36.6631 40.8735 36.6104 40.9259 36.5445 40.9259H35.1091C35.0696 40.9259 35.0038 40.8735 35.0038 40.8081V35.9629L33.5551 40.8473C33.5288 40.8997 33.5025 40.9259 33.4498 40.9259H32.4094C32.3699 40.9259 32.3172 40.8997 32.3041 40.8473L30.9476 35.8713V40.8081C30.9476 40.8735 30.895 40.9259 30.8291 40.9259H29.3673C29.3147 40.9259 29.2752 40.8735 29.2752 40.8081V32.4011C29.2752 32.3356 29.3147 32.2833 29.3673 32.2833H31.211C31.2637 32.2833 31.3164 32.3225 31.3296 32.3618L32.923 37.6653L34.6745 32.3618C34.6745 32.3225 34.714 32.2833 34.7667 32.2833H36.5445ZM35.7281 40.1271C35.7281 40.2188 35.8993 40.245 35.8993 40.1271V33.069C35.8993 33.0428 35.8598 33.0035 35.8202 33.0035H35.2013C35.1486 33.0035 35.1354 33.0428 35.1091 33.069L32.923 39.5509L30.7501 33.0559C30.7501 33.0166 30.7238 33.0035 30.6843 33.0035H30.039C29.9995 33.0035 29.96 33.0428 29.96 33.0821V40.1271C29.96 40.2188 30.1312 40.245 30.1312 40.1271V33.1737H30.6184L32.844 39.8259C32.8967 39.9176 32.9362 39.8914 33.002 39.8259L35.2408 33.1737H35.7281V40.1271ZM46.4083 32.2833C46.4741 32.2833 46.5268 32.3356 46.5268 32.4011V40.8081C46.5268 40.8735 46.4741 40.9259 46.4083 40.9259H44.9728C44.9333 40.9259 44.8675 40.8735 44.8675 40.8081V35.9629L43.4189 40.8473C43.3925 40.8997 43.3662 40.9259 43.3135 40.9259H42.2731C42.2336 40.9259 42.181 40.8997 42.1678 40.8473L40.8114 35.8713V40.8081C40.8114 40.8735 40.7587 40.9259 40.6928 40.9259H39.2311C39.1784 40.9259 39.1389 40.8735 39.1389 40.8081V32.4011C39.1389 32.3356 39.1784 32.2833 39.2311 32.2833H41.0747C41.1274 32.2833 41.1801 32.3225 41.1933 32.3618L42.7867 37.6653L44.5382 32.3618C44.5382 32.3225 44.5778 32.2833 44.6304 32.2833H46.4083ZM45.5918 40.1271C45.5918 40.2188 45.763 40.245 45.763 40.1271V33.069C45.763 33.0428 45.7235 33.0035 45.684 33.0035H45.065C45.0123 33.0035 44.9992 33.0428 44.9728 33.069L42.7867 39.5509L40.6138 33.0559C40.6138 33.0166 40.5875 33.0035 40.548 33.0035H39.9027C39.8632 33.0035 39.8237 33.0428 39.8237 33.0821V40.1271C39.8237 40.2188 39.9949 40.245 39.9949 40.1271V33.1737H40.4821L42.7077 39.8259C42.7604 39.9176 42.7999 39.8914 42.8658 39.8259L45.1045 33.1737H45.5918V40.1271ZM50.6487 32.3618C50.6619 32.3225 50.6882 32.2833 50.7409 32.2833H52.3739C52.4266 32.2833 52.4529 32.3225 52.4661 32.3618L54.7444 40.7819C54.7575 40.8604 54.7049 40.9259 54.6258 40.9259H53.1246C53.085 40.9259 53.0455 40.8997 53.0324 40.8473L52.5188 39.014H50.5961L50.0956 40.8473C50.0825 40.8997 50.0561 40.9259 50.0035 40.9259H48.489C48.41 40.9259 48.3573 40.8604 48.3705 40.7819L50.6487 32.3618ZM51.0175 37.3903H52.1105L51.5442 35.4129L51.0175 37.3903ZM53.0455 38.1629L53.6513 40.1271C53.6777 40.2057 53.8225 40.1926 53.783 40.0878L51.6759 33.1213C51.6364 32.9511 51.4126 32.938 51.3731 33.1213L49.3318 40.0878C49.2923 40.1795 49.4372 40.2188 49.4767 40.1402L50.0561 38.1629H53.0455ZM50.0956 37.9926L51.5311 33.1737L52.9929 37.9926H50.0956ZM61.5265 37.5081C61.3421 37.8879 61.0787 38.176 60.71 38.3462L61.8162 40.7688C61.8557 40.8473 61.803 40.9259 61.724 40.9259H60.1042C60.0515 40.9259 60.0252 40.8997 60.012 40.8604L58.9848 38.6343H58.3132V40.8081C58.3132 40.8735 58.2605 40.9259 58.1947 40.9259H56.6802C56.6276 40.9259 56.588 40.8735 56.588 40.8081V32.4011C56.588 32.3356 56.6276 32.2833 56.6802 32.2833H59.4194C60.8812 32.2833 61.7635 33.1082 61.7635 34.6403V36.2903C61.7635 36.7486 61.6845 37.1808 61.5265 37.5081ZM60.0384 35.8844V35.0332C60.0384 34.1165 59.696 34.0249 58.6951 34.0249H58.3132V36.9189H58.6951C59.5248 36.9189 60.012 36.9058 60.0384 35.8844ZM57.5494 40.1271V37.8879H59.4458L60.552 40.1533C60.5783 40.2188 60.7363 40.1926 60.6968 40.0747L59.5906 37.8486C60.6178 37.7046 60.9734 37.1677 60.9734 36.1986V34.5618C60.9734 33.1213 59.6565 33.0035 59.2482 33.0035H57.4704C57.444 33.0035 57.3914 33.0428 57.3914 33.0821V40.1271C57.3914 40.2188 57.5494 40.2188 57.5494 40.1271ZM60.8154 34.5618V36.1986C60.8154 37.5343 59.9594 37.7177 59.1297 37.7177H57.5494V33.1737H59.2482C60.6705 33.1737 60.8154 34.1296 60.8154 34.5618Z" fill="#FFFEFE"/>
<path d="M74.7825 32.1657V33.4937H72.5753V41.0569H71.083V33.4937H68.8696V32.1657H74.7825ZM81.1468 41.0568L78.8268 37.0914H77.8612V41.0568H76.3626V32.1657H79.4664C81.4039 32.1657 82.2567 33.3191 82.2567 34.7469C82.2567 35.9877 81.5168 36.8232 80.3317 37.0352L82.9088 41.0567L81.1468 41.0568ZM77.8612 33.4253V35.9879H79.2469C80.3442 35.9879 80.8145 35.4766 80.8145 34.716C80.8145 33.9616 80.3442 33.4253 79.2469 33.4253H77.8612ZM89.549 33.4936H86.0752V35.9564H89.1477V37.272H86.0752V39.7223H89.549V41.0565H84.5578V32.1654H89.549V33.4936ZM96.8098 41.0568L93.8189 37.1101H93.0916V41.0568H91.593V32.1657H93.0916V35.7881H93.8064L96.7472 32.1657H98.5843L95.0981 36.4116L98.7286 41.0567L96.8098 41.0568ZM105.482 41.0568L102.491 37.1101H101.763V41.0568H100.265V32.1657H101.763V35.7881H102.478L105.419 32.1657H107.256L103.77 36.4116L107.4 41.0567L105.482 41.0568ZM113.928 33.4936H110.454V35.9564H113.527V37.272H110.454V39.7223H113.928V41.0565H108.937V32.1654H113.928V33.4936ZM120.756 41.0568L118.436 37.0914H117.471V41.0568H115.972V32.1657H119.076C121.013 32.1657 121.866 33.3191 121.866 34.7469C121.866 35.9877 121.126 36.8232 119.941 37.0352L122.518 41.0567L120.756 41.0568ZM117.471 33.4253V35.9879H118.856C119.954 35.9879 120.424 35.4766 120.424 34.716C120.424 33.9616 119.954 33.4253 118.856 33.4253H117.471Z" fill="#FFFEFE"/>
</svg>
