<svg width="127" height="56" viewBox="0 0 127 56" fill="none" xmlns="http://www.w3.org/2000/svg">
<g clip-path="url(#clip0_102_46)">
<path d="M0 0H127V56H0V0ZM1.38043 1.3913V54.6087H125.62V1.3913H1.38043Z" fill="#111111"/>
<path d="M54.1891 4.86956L63.2107 11.0916V32.329C60.0406 27.7363 54.1891 25.8705 54.1891 25.8705V4.86956Z" fill="#111111"/>
<path d="M55.1488 30.9857C55.1488 30.9857 52.522 29.6479 49.0054 30.2007V9.33499H49.8655V29.1547C49.8655 29.1547 53.6522 29.1077 55.1488 30.9857Z" fill="#111111"/>
<path d="M58.6999 30.306C57.3259 28.337 53.0017 26.8054 53.0017 26.8054V7.22192L51.2053 6.51381V27.8291C51.2053 27.8291 53.052 28.0586 53.9744 28.3208C57.16 29.2283 58.6999 30.306 58.6999 30.306Z" fill="#111111"/>
<path d="M73.42 4.86956L64.3984 11.0916V32.329C67.5686 27.7363 73.42 25.8705 73.42 25.8705V4.86956Z" fill="#111111"/>
<path d="M72.4603 30.9857C72.4603 30.9857 75.0875 29.6479 78.6037 30.2007V9.33499H77.7437V29.1547C77.7437 29.1547 73.957 29.1077 72.4603 30.9857Z" fill="#111111"/>
<path d="M68.9092 30.306C70.2832 28.337 74.6075 26.8054 74.6075 26.8054V7.22192L76.4039 6.51381V27.8291C76.4039 27.8291 74.5572 28.0586 73.6347 28.3208C70.4489 29.2283 68.9092 30.306 68.9092 30.306Z" fill="#111111"/>
<path d="M8.60642 49.5025C8.75785 49.5164 8.89552 49.5164 9.04695 49.5164C9.11578 49.5164 9.22592 49.5164 9.30852 49.4886C9.65268 49.4331 9.88672 49.1973 9.88672 48.7533V46.4084H8.82668V44.7989H12.0205V48.6561C12.0205 50.0436 11.0431 51.0426 9.96932 51.2091C9.80412 51.2369 9.63892 51.2369 9.47372 51.2369C9.33605 51.2369 9.21215 51.223 9.08825 51.223H8.20718C7.00948 51.223 5.86685 50.1824 5.86685 48.6561V41.8712C5.86685 40.3589 7.02325 39.3043 8.20718 39.3043H9.66645C11.0293 39.3043 12.0205 40.5531 12.0205 41.8851V43.5224H9.88672C9.88672 43.2587 9.88672 42.9812 9.87295 42.7176C9.87295 42.6205 9.87295 42.5372 9.84542 42.4401C9.83165 42.2042 9.80412 41.9684 9.77658 41.7464C9.74905 41.2052 9.45995 41.011 8.97812 41.011C8.85422 41.011 8.73032 41.0249 8.60642 41.0249C8.20718 41.0942 7.98692 41.3995 7.98692 41.8019V48.4619C7.98692 48.8781 8.08328 49.5025 8.60642 49.5025ZM15.3521 46.6304V51.0843H13.2733V39.4431H16.5635C16.7425 39.4431 16.9215 39.4431 17.1142 39.457C18.4358 39.457 19.4408 40.6502 19.4545 41.9545V42.5372C19.4545 43.1061 19.4408 43.6889 19.4408 44.2577C19.427 45.1735 18.9452 45.9644 18.2844 46.3806L19.7987 51.0843H17.6786L16.2882 46.6304H15.3521ZM16.5085 41.1359H15.3521V45.0764H16.6461C17.0591 45.0764 17.2381 44.7434 17.2794 44.3826C17.3069 43.9664 17.3345 43.5362 17.3345 43.12C17.3345 42.6899 17.3069 42.2736 17.2794 41.8574C17.2243 41.3717 16.9765 41.1359 16.5085 41.1359ZM25.1402 39.4431L27.921 51.0843H25.8147L25.2778 48.6006H23.0063L22.4557 51.0843H20.3631L23.1302 39.4431H25.1402ZM24.1352 43.4114L23.3505 47.0328H24.9337L24.1352 43.4114ZM34.9283 44.6601L33.7306 48.7949H32.0235L30.8258 44.6601V51.0843H28.747V39.4431H30.9084L32.877 45.6869L34.8594 39.4431H37.007V51.0843H34.9283V44.6601ZM44.4135 44.6601L43.2158 48.7949H41.5087L40.311 44.6601V51.0843H38.2323V39.4431H40.3936L42.3623 45.6869L44.3447 39.4431H46.4923V51.0843H44.4135V44.6601ZM52.2467 39.4431L55.0276 51.0843H52.9213L52.3844 48.6006H50.1129L49.5622 51.0843H47.4697L50.2368 39.4431H52.2467ZM51.2418 43.4114L50.4571 47.0328H52.0402L51.2418 43.4114ZM57.9461 46.6304V51.0843H55.8674V39.4431H59.1576C59.3365 39.4431 59.5155 39.4431 59.7082 39.457C61.0298 39.457 62.0348 40.6502 62.0486 41.9545V42.5372C62.0486 43.1061 62.0348 43.6889 62.0348 44.2577C62.021 45.1735 61.5392 45.9644 60.8784 46.3806L62.3927 51.0843H60.2727L58.8822 46.6304H57.9461ZM59.1025 41.1359H57.9461V45.0764H59.2402C59.6532 45.0764 59.8321 44.7434 59.8734 44.3826C59.901 43.9664 59.9285 43.5362 59.9285 43.12C59.9285 42.6899 59.901 42.2736 59.8734 41.8574C59.8184 41.3717 59.5706 41.1359 59.1025 41.1359Z" fill="#111111"/>
<path d="M76.5354 41.1959H74.207V51.2369H71.6952V41.1959H69.3669V39.3186H76.5354V41.1959ZM73.9248 50.9524V40.9115H76.2531V39.603H69.6491V40.9115H71.9774V50.9524H73.9248ZM79.8656 46.7711V51.2369H77.3538V39.3186H80.7405C80.9381 39.3186 81.1356 39.3043 81.3191 39.3043C81.5307 39.3043 81.7424 39.3328 81.94 39.3897C82.9277 39.6741 83.8309 40.6555 83.8026 41.8928V42.419C83.8026 43.0306 83.7885 43.6422 83.8026 44.2537C83.8309 45.1924 83.3229 46.0315 82.702 46.4866L84.226 51.2369H81.6577L80.3031 46.7853C80.1478 46.7711 80.0067 46.7711 79.8656 46.7711ZM79.5834 46.4866L80.5006 46.5009L81.8694 50.9524H83.8309L82.3774 46.3871L82.5326 46.2591C83.1394 45.8182 83.5204 45.0644 83.5204 44.3106V41.8928C83.5204 40.6697 82.5467 39.5888 81.3191 39.5888L77.636 39.603V50.9524H79.5834V46.4866ZM79.5834 41.0395H80.7687C81.3614 41.0395 81.5166 41.651 81.5166 41.9639V44.3106C81.5166 44.7373 81.3332 45.2208 80.8393 45.2208L79.5834 45.2066V41.0395ZM79.8656 41.3239V44.9222C80.2043 44.9222 80.5147 44.9364 80.8393 44.9364C81.1497 44.9364 81.2344 44.5666 81.2344 44.3106V41.9639C81.2485 41.6226 81.0368 41.3097 80.7687 41.3239H79.8656ZM87.4433 45.932V49.3595H90.6325V51.2369H84.9315V39.3186H90.6325V41.1959L87.4433 41.1817V44.0831H89.4471V45.932H87.4433ZM89.1649 45.6475V44.3675H87.1611V40.8973L90.3503 40.9115V39.603H85.2138V50.9524H90.3503V49.644H87.1611V45.6475H89.1649ZM98.8593 51.2369H96.3052L94.6401 45.8466L94.118 46.4866V51.2369H91.592V39.3186H94.118L94.1321 43.1017C95.0211 41.7079 95.515 40.7977 96.3334 39.3186H98.9581L96.4463 43.5853L98.8593 51.2369ZM93.8357 46.3729L94.7671 45.2635L96.5169 50.9524H98.4642L96.1359 43.5568L98.4642 39.603H96.5027C95.8113 40.8404 95.134 42.0635 94.3578 43.2582L93.8498 44.0688L93.8357 39.603H91.8743V50.9524H93.8357V46.3729ZM107.072 51.2369H104.518L102.853 45.8466L102.331 46.4866V51.2369H99.8048V39.3186H102.331L102.345 43.1017C103.234 41.7079 103.728 40.7977 104.546 39.3186H107.171L104.659 43.5853L107.072 51.2369ZM102.048 46.3729L102.98 45.2635L104.73 50.9524H106.677L104.349 43.5568L106.677 39.603H104.715C104.024 40.8404 103.347 42.0635 102.571 43.2582L102.063 44.0688L102.048 39.603H100.087V50.9524H102.048V46.3729ZM110.529 45.932V49.3595H113.718V51.2369H108.018V39.3186H113.718V41.1959L110.529 41.1817V44.0831H112.533V45.932H110.529ZM112.251 45.6475V44.3675H110.247V40.8973L113.436 40.9115V39.603H108.3V50.9524H113.436V49.644H110.247V45.6475H112.251ZM117.19 46.7711V51.2369H114.678V39.3186H118.065C118.262 39.3186 118.46 39.3043 118.643 39.3043C118.855 39.3043 119.067 39.3328 119.264 39.3897C120.252 39.6741 121.155 40.6555 121.127 41.8928V42.419C121.127 43.0306 121.113 43.6422 121.127 44.2537C121.155 45.1924 120.647 46.0315 120.026 46.4866L121.55 51.2369H118.982L117.627 46.7853C117.472 46.7711 117.331 46.7711 117.19 46.7711ZM116.908 46.4866L117.825 46.5009L119.194 50.9524H121.155L119.702 46.3871L119.857 46.2591C120.464 45.8182 120.845 45.0644 120.845 44.3106V41.8928C120.845 40.6697 119.871 39.5888 118.643 39.5888L114.96 39.603V50.9524H116.908V46.4866ZM116.908 41.0395H118.093C118.686 41.0395 118.841 41.651 118.841 41.9639V44.3106C118.841 44.7373 118.657 45.2208 118.163 45.2208L116.908 45.2066V41.0395ZM117.19 41.3239V44.9222C117.528 44.9222 117.839 44.9364 118.163 44.9364C118.474 44.9364 118.559 44.5666 118.559 44.3106V41.9639C118.573 41.6226 118.361 41.3097 118.093 41.3239H117.19Z" fill="#111111"/>
</g>
<defs>
<clipPath id="clip0_102_46">
<rect width="127" height="56" fill="white"/>
</clipPath>
</defs>
</svg>
