<svg width="375" height="381" viewBox="0 0 375 381" fill="none" xmlns="http://www.w3.org/2000/svg">
<g clip-path="url(#clip0_102_7)">
<path d="M45.5618 311.57C49.2899 315.944 53.223 320.138 57.3477 324.14C71.2511 337.824 87.831 349.327 105.617 358.026C112.171 361.095 118.216 364.274 125.298 367.011C127.068 367.69 128.876 368.418 130.776 369.074C132.692 369.681 134.679 370.288 136.756 370.89C138.822 371.535 141.023 371.994 143.326 372.47C145.63 372.933 148.023 373.462 150.593 373.725C137.844 371.038 125.418 367 113.524 361.68C101.557 356.281 90.185 349.648 79.5943 341.888C58.3833 326.35 40.2409 306.4 26.9891 283.594C26.4421 282.913 25.6116 281.614 24.6162 279.959L23.0155 277.248L21.4008 274.129C20.3269 271.965 19.0902 269.769 18.1431 267.642C17.2938 265.781 16.4048 263.939 15.4766 262.116C19.595 272.373 24.3487 281.346 29.6716 289.878C32.1234 293.791 34.7186 297.613 37.4518 301.335C37.0657 300.814 36.6635 300.307 36.2794 299.784C39.2084 303.818 42.2942 307.737 45.5296 311.53L45.5618 311.57ZM2.68526 213.241L1.71399 205.449C2.22878 210.204 2.82602 215.519 3.91794 220.84L3.26038 217.061C3.01766 215.796 2.8258 214.522 2.68526 213.241ZM172.561 373.174C185.937 374.527 199.965 374.123 213.706 371.949C227.454 369.784 240.901 365.943 253.403 360.992C230.378 370.047 205.942 374.075 182.036 373.401C178.837 373.351 175.683 373.401 172.561 373.174Z" fill="#111111"/>
<path d="M93.359 345.81L92.8382 345.478C93.0131 345.589 93.184 345.701 93.359 345.81ZM112.766 356.502C123.789 361.63 135.333 365.552 147.199 368.197C127.717 363.753 109.384 355.912 93.359 345.81C99.5124 349.725 105.981 353.349 112.766 356.502ZM355.935 215.356C356.132 212.179 356.53 208.845 356.631 207.258C357.825 197.061 358.179 188.354 358.129 179.618C357.908 178.044 357.274 175.094 357.023 171.74C356.715 168.377 356.263 165.086 355.881 161.838C355.3 158.619 354.799 155.431 354.163 152.306C358.738 175.667 358.662 199.118 354.453 221.244C354.916 219.274 355.41 217.311 355.935 215.356Z" fill="#111111"/>
<path d="M1.78456 167.875C3.4898 154 7.11949 140.474 10.5722 131.463L9.17463 138.059C10.0373 136.127 11.4309 131.636 13.3312 126.885L14.7026 123.261L16.2168 119.748C17.2223 117.474 18.0669 115.318 18.9577 113.665C18.3484 115.215 17.7612 116.886 17.0534 118.563C16.3596 120.247 15.5814 121.956 14.8394 123.675L17.8839 116.82C14.812 124.515 12.1676 132.375 9.96291 140.362C7.68455 149.113 5.88278 158.311 4.91353 166.568C4.632 168.627 4.53346 170.638 4.35047 172.556C4.21574 174.475 3.98248 176.305 3.96438 178.034C3.87992 181.491 3.76329 184.517 3.8216 186.938C4.03275 191.783 4.32433 194.198 4.74461 192.848C5.57109 190.168 5.555 176.383 8.43864 159.131C9.98101 150.533 12.195 141.102 15.1993 131.862C18.1815 122.613 22.0907 113.647 26.1386 105.736L24.9482 108.334L23.8522 111.01L21.6081 116.422L19.5489 122.012L18.5012 124.831C18.1935 125.789 17.8819 126.75 17.5742 127.715C14.9198 135.371 12.935 143.432 11.2056 151.558L10.0816 157.696C9.66932 159.735 9.49437 161.81 9.18871 163.863C8.54924 167.967 8.31598 172.102 7.96005 176.188C7.55988 184.38 7.47944 192.472 8.22146 200.21C8.1913 198.372 8.16114 196.739 8.18728 195.159L8.41853 190.423C8.51506 188.796 8.49696 187.071 8.64979 185.094C8.79055 183.118 8.91925 180.889 9.03186 178.253C9.81812 164.965 12.193 151.81 15.885 139.079C19.4041 126.293 23.5546 115.034 29.7382 104.833L31.3489 101.764C32.4388 99.7052 33.3457 97.6741 34.498 95.6029C35.8111 93.3306 37.0679 91.6294 38.0854 90.0709C39.1331 88.5285 40.0219 87.1732 41.0394 85.8581L48.4436 75.6386C48.5944 75.6205 48.3994 76.0107 48.0414 76.5898C49.2622 74.8501 50.5773 73.1786 51.9808 71.5826C53.499 69.8231 54.973 67.957 56.2218 66.4166C56.5154 66.4025 56.8009 66.3945 57.4746 65.9119C74.8689 47.4176 96.275 32.3459 120.398 22.8443L125.761 20.755L131.19 18.9472L133.891 18.0463L136.626 17.2822L142.075 15.7679C145.192 15.0179 148.349 14.2578 151.569 13.5741L156.469 12.7174C158.116 12.4339 159.771 12.1141 161.465 11.9573C164.831 11.5531 167.767 10.7005 169.349 10.4913C178.135 9.99062 186.904 10.0912 197.198 10.9257C197.997 10.9398 199.239 11.0122 200.681 11.0906C202.123 11.173 203.772 11.2132 205.371 11.36C207.245 11.7823 209.246 12.2006 211.345 12.6088C224.152 14.5956 236.536 18.1469 248.318 22.8705L248.303 22.8142L252.816 24.6119L257.421 26.7394C260.58 28.1149 263.675 29.8745 266.872 31.5314C268.477 32.3499 269.997 33.3493 271.574 34.2542C273.122 35.2074 274.743 36.052 276.239 37.0936C279.271 39.1085 282.346 41.037 285.179 43.1907C289.748 46.4873 294.176 49.9746 298.451 53.6434C298.544 53.7278 298.64 53.8062 298.733 53.8887L298.817 53.9651L301.747 56.6235L304.55 59.4207L307.356 62.2199C308.285 63.159 309.145 64.1644 310.044 65.1337C309.61 64.4298 309.626 64.1463 309.642 63.8668C308.257 62.5396 306.618 60.9691 304.999 59.4227C307.7 61.88 310.056 64.1021 311.991 65.9159C312.737 66.8691 313.551 67.8062 314.323 68.8297L316.708 71.9788L319.244 75.2546L321.768 78.7777C326.244 84.4846 330.196 90.5897 333.948 96.8155C335.685 100.009 337.602 103.112 339.148 106.416L341.587 111.314L343.783 116.335C344.415 117.407 344.169 116.38 344.248 116.199C346.711 122.155 348.692 128.348 350.486 134.59C353.914 145.871 356.21 157.464 357.339 169.2C357.791 171.971 357.984 174.774 358.384 177.551L358.137 183.431C358.135 185.649 358.252 187.867 358.157 190.089L357.9 196.778C357.868 198.286 357.65 199.933 357.524 201.722C357.355 203.508 357.266 205.435 357.009 207.466L356.18 213.884C355.915 216.135 355.402 218.447 355.008 220.864C353.045 231.478 350.144 241.897 346.337 251.997C345.85 253.658 345.478 254.985 345.147 255.727C343.886 258.746 342.541 261.667 341.241 264.545C339.788 267.348 338.454 270.151 336.964 272.806C332.356 281.544 327.008 289.873 320.98 297.699C320.304 298.582 319.675 299.479 318.995 300.307L316.988 302.732C315.661 304.299 314.474 305.865 313.215 307.225C310.7 309.943 308.588 312.465 306.608 314.361C304.339 316.73 304.542 316.841 306.113 315.699C307.215 314.884 308.294 314.038 309.346 313.161L313.614 309.312C315.174 307.951 316.668 306.414 318.108 304.966C319.532 303.508 320.955 302.179 322.053 300.977C324.267 298.582 325.721 297.104 325.412 297.761C321.838 304.488 315.331 312.785 305.819 321.962C300.967 326.441 295.507 331.307 289.05 335.999C285.901 338.454 282.4 340.7 278.831 343.153C275.143 345.412 271.375 347.885 267.254 350.081C258.237 354.992 274.021 347.115 274.447 347.04C272.925 348.239 271.329 349.341 269.667 350.338C266.695 351.919 263.749 353.55 260.671 354.909C258.871 355.736 257.103 356.628 255.283 357.401L249.796 359.657L252.699 358.515C258.635 356.156 264.184 353.377 269.193 350.628C267.311 351.766 265.251 353.083 262.995 354.272C260.576 355.522 258.072 356.89 255.561 358.111L248.271 361.501C274.349 352.028 298.313 336.351 317.284 315.914C326.781 305.726 335.251 294.536 342.156 282.43C349.105 270.349 354.694 257.536 358.823 244.225C352.48 264.193 342.593 282.537 330.708 298.047C352.314 268.875 365.195 233.109 366.903 196.223C366.901 198.256 366.7 200.281 366.565 202.306C366.398 204.331 366.317 206.364 366.08 208.383C365.563 212.414 365.193 216.468 364.417 220.466C363.162 228.51 361.127 236.415 358.823 244.225C363.371 230.106 366.088 215.22 367.158 200.248C368.272 185.265 367.343 170.191 365.032 155.584C369.002 174.933 369.66 196.856 366.277 218.522C368.654 204.548 369.257 190.144 368.344 175.862C368.139 170.407 367.496 164.989 366.967 159.974C366.209 154.995 365.636 150.398 364.902 146.68C367.808 160.406 368.954 172.114 369.513 183.15C368.976 159.065 363.987 134.663 354.19 111.74C359.537 124.19 363.926 137.583 366.607 151.351C369.302 165.106 370.422 179.178 369.784 192.716C369.754 191.131 369.82 189.548 369.728 187.958L369.513 183.15C370.09 204.968 366.73 226.593 360.07 246.93C356.727 257.097 352.599 266.976 347.602 276.377C342.615 285.764 336.857 294.72 330.389 303.154C337.775 294.528 345.573 282.334 351.797 268.939C357.992 255.516 362.591 240.999 365.754 228.321C361.101 251.088 351.865 273.554 338.464 293.617C325.1 313.696 307.595 331.349 287.341 344.899C267.111 358.491 244.159 367.898 220.605 372.545C208.91 374.867 197.022 376.085 185.099 376.183C173.393 376.245 161.706 375.225 150.187 373.136L156.23 374.284C158.245 374.666 160.288 374.877 162.315 375.179C166.369 375.831 170.469 376.076 174.556 376.452C182.746 376.912 190.981 377.067 199.189 376.442C207.412 376.006 215.582 374.779 223.714 373.281C227.748 372.364 231.83 371.614 235.814 370.437C237.813 369.878 239.836 369.39 241.82 368.768L247.763 366.842C244.762 367.771 241.605 369.002 238.233 369.904L234.008 371.147C242.874 368.783 251.552 365.761 259.969 362.106C263.819 360.426 267.609 358.612 271.332 356.667C264.356 360.367 257.161 363.639 249.788 366.464C235.726 371.711 221.113 375.342 206.231 377.287C203.999 377.64 201.964 377.751 200.14 377.942L195.258 378.425C192.384 378.652 190.263 378.754 188.779 378.917C185.809 379.213 185.386 379.488 186.569 379.716C187.749 379.943 190.532 380.124 193.955 380.22C197.367 380.2 201.415 380.017 205.097 379.682C242.092 375.887 276.058 361.368 303.278 339.632C330.515 317.892 351.376 289.014 363.003 256.246C363.733 254.344 364.294 252.381 364.902 250.435C365.491 248.482 366.143 246.55 366.675 244.579C367.663 240.617 368.831 236.702 369.587 232.68L370.832 226.678L371.811 220.621L372.296 217.59L372.642 214.54L373.329 208.439C374.733 192.122 374.178 175.631 371.697 159.447C370.369 150.289 368.037 139.417 365.03 129.732L362.718 122.726C361.914 120.5 361.059 118.401 360.299 116.426L359.179 113.58L358.031 111.025L356.058 106.753C349.756 93.966 341.837 81.7699 332.566 70.4264C323.306 59.0788 312.667 48.5719 300.671 39.4222L296.159 35.9977L291.48 32.7641L289.135 31.1433L286.716 29.6231L281.855 26.5906C275.229 22.7619 268.443 19.0719 261.288 16.0113C254.207 12.7978 246.797 10.1897 239.254 7.85705C235.444 6.81138 231.651 5.64505 227.744 4.8427C225.797 4.42242 223.867 3.91165 221.898 3.55974L215.978 2.51206C201.821 0.0205479 187.096 -0.572669 172.384 0.533329C157.68 1.66949 142.914 4.46063 128.755 9.27876L123.456 11.1147C121.685 11.712 119.978 12.4862 118.234 13.1638C116.509 13.8857 114.745 14.5172 113.052 15.3135L107.96 17.6723C106.247 18.4284 104.592 19.2971 102.941 20.1759L97.9762 22.784L93.146 25.6234C91.5373 26.5725 89.9165 27.4996 88.3761 28.5553L83.7028 31.628C82.1303 32.6274 80.6744 33.7957 79.1561 34.8695C77.6661 35.9836 76.1197 37.0212 74.6799 38.1956L70.3423 41.6885C68.8764 42.8247 67.4929 44.0574 66.1134 45.2921L61.9649 48.972L58.0014 52.8309C56.6823 54.1159 55.349 55.3868 54.1204 56.7542C44.0035 67.408 35.1153 79.031 27.8459 91.3297C20.7173 103.395 14.8758 116.175 10.4174 129.461C1.61966 155.441 -0.904023 181.79 0.270345 205.589C0.0169713 195.792 -0.0252576 181.742 1.78456 167.875ZM285.588 349.753C291.698 345.803 297.583 341.514 303.213 336.906C297.502 341.609 291.634 345.953 285.588 349.753ZM366.46 240.597C365.859 242.409 365.35 244.199 364.687 245.908L362.762 250.982L361.825 253.491L360.793 255.967C360.104 257.635 359.436 259.311 358.789 260.996C355.065 270.269 350.637 279.244 345.543 287.841C340.473 296.438 334.597 304.494 328.319 312.053C325.219 315.871 321.84 319.413 318.518 322.954L313.328 328.027C311.625 329.733 309.761 331.253 307.995 332.862C306.515 334.149 305.023 335.407 303.521 336.646C309.1 332.063 314.402 327.154 319.399 321.942C312.169 329.436 304.305 336.291 295.894 342.429C293.81 343.881 291.797 345.438 289.634 346.805L283.104 350.966L276.207 354.885C273.86 356.188 271.383 357.346 268.899 358.615C270.678 357.567 272.478 356.556 274.298 355.583C276.352 354.443 278.505 353.095 280.609 351.863C282.728 350.654 284.655 349.327 286.255 348.217C287.856 347.107 289.111 346.186 289.764 345.591C288.831 346.224 287.882 346.831 286.937 347.449C287.954 346.778 288.964 346.098 289.967 345.408C289.925 345.454 289.837 345.526 289.764 345.591C311.747 330.577 330.475 310.848 344.507 288.356C358.602 265.884 367.773 240.535 371.574 214.755C370.749 225.095 368.855 233.352 366.46 240.597ZM336.092 83.6461C342.143 92.7862 347.374 102.444 351.722 112.507C352.225 113.611 352.7 114.731 353.168 115.853C363.148 140.293 367.689 166.511 367.023 192.34C367.192 183.793 366.625 175.251 365.678 166.781C364.606 157.02 362.625 147.376 359.999 137.943C354.847 119.026 346.48 101.097 335.858 84.7521C336.834 86.0994 337.861 87.5593 338.925 89.1077C340.064 90.7102 341.131 92.3628 342.122 94.0605L340.839 91.8304L339.454 89.6607L336.683 85.3252C334.796 82.4616 332.751 79.7027 330.783 76.8954C328.647 74.2129 326.622 71.4419 324.4 68.8297C322.719 66.9133 321.108 64.9326 319.403 63.0403C325.42 69.3847 331.068 76.1916 336.092 83.6461ZM194.829 2.317C197.779 2.47385 200.735 2.76141 203.692 2.98261C206.113 3.18571 208.522 3.54365 210.907 3.81312C211.623 3.84328 212.379 3.89154 213.328 3.99812C214.275 4.12883 215.407 4.37215 216.885 4.70998C227.883 6.54393 237.917 9.30088 245.04 12.1483C258.71 17.3224 271.429 23.7593 282.965 31.1936C294.506 38.6138 304.862 47.0536 313.624 56.2716C317.662 60.6534 316.483 59.6982 314.257 57.5707L317.599 61.1179C316.119 59.6419 314.665 58.1458 313.163 56.7019L308.536 52.4992C309.662 53.4845 312.393 55.8433 314.257 57.5707C299.399 42.4104 282.03 29.8222 263.23 20.5619C244.416 11.3057 224.157 5.58875 203.905 3.30637C207.158 3.66833 208.755 3.74877 210.275 3.78898C208.093 3.5336 205.906 3.1837 203.692 2.98261C200.717 2.78755 197.749 2.52211 194.797 2.37733L186.03 2.17021C188.933 2.1682 191.875 2.24863 194.829 2.317Z" fill="#111111"/>
<path d="M233.149 371.394L234.006 371.143C233.109 371.384 232.226 371.65 231.323 371.879C231.934 371.726 232.548 371.577 233.149 371.394ZM322.598 293.896C331.114 282.661 338.639 269.236 343.443 257.672L343.385 257.684C331.197 286.484 311.428 311.295 286.758 329.562C291.138 326.517 295.441 323.364 299.664 320.104C305.089 314.434 314.168 305.212 322.598 293.896ZM71.0862 327.468C85.5084 340.362 102.901 351.583 122.26 359.142C129.809 361.983 137.512 364.473 145.391 366.226C149.3 367.236 153.292 367.859 157.253 368.601C159.238 368.953 161.249 369.148 163.244 369.43C165.243 369.689 167.238 369.983 169.251 370.099C160.163 369.092 151.142 367.584 142.361 365.193C133.585 362.81 124.983 359.864 116.683 356.246C108.428 352.571 100.436 348.328 92.7658 343.549C85.1525 338.707 77.9333 333.3 71.0862 327.468ZM249.106 350.455L244.643 352.206L240.087 353.727C237.07 354.813 233.959 355.625 230.857 356.488C233.976 355.703 237.113 354.971 240.155 353.966L244.746 352.562L249.23 350.923C249.057 350.835 248.036 351.034 249.106 350.455ZM196.432 361.893C194.099 362.092 191.755 362.074 189.406 362.098C187.057 362.126 184.704 362.176 182.35 362.022L185.519 362.319C186.488 362.382 187.361 362.456 188.123 362.546C190.9 362.309 193.657 362.243 196.432 361.893ZM103.444 340.264C106.14 341.846 109.004 343.24 111.845 344.776C112.557 345.166 113.848 345.611 115.467 346.202C112.006 344.716 108.69 342.874 105.32 341.165C103.651 340.278 102.044 339.284 100.407 338.359C98.7744 337.426 97.1475 336.495 95.6032 335.454L97.4874 336.712L99.452 337.887L103.444 340.264Z" fill="#111111"/>
<path d="M168.427 138.328L186.088 150.414V191.664C179.882 182.743 168.427 179.119 168.427 179.119V138.328Z" fill="#111111"/>
<path d="M170.306 189.055C170.306 189.055 165.164 186.456 158.28 187.53V147.002H159.963V185.498C159.963 185.498 167.376 185.407 170.306 189.055Z" fill="#111111"/>
<path d="M177.258 187.735C174.568 183.91 166.103 180.935 166.103 180.935V142.898L162.586 141.522V182.924C162.586 182.924 166.201 183.37 168.007 183.879C174.243 185.641 177.258 187.735 177.258 187.735Z" fill="#111111"/>
<path d="M206.075 138.328L188.414 150.414V191.664C194.62 182.743 206.075 179.119 206.075 179.119V138.328Z" fill="#111111"/>
<path d="M204.196 189.055C204.196 189.055 209.339 186.456 216.222 187.53V147.002H214.539V185.498C214.539 185.498 207.126 185.407 204.196 189.055Z" fill="#111111"/>
<path d="M197.244 187.735C199.934 183.91 208.399 180.935 208.399 180.935V142.898L211.916 141.522V182.924C211.916 182.924 208.301 183.37 206.495 183.879C200.258 185.641 197.244 187.735 197.244 187.735Z" fill="#111111"/>
<path d="M73.1972 237.942C73.4937 237.969 73.7632 237.969 74.0596 237.969C74.1944 237.969 74.41 237.969 74.5717 237.915C75.2454 237.807 75.7036 237.349 75.7036 236.486V231.932H73.6284V228.806H79.8808V236.298C79.8808 238.993 77.9674 240.933 75.8653 241.256C75.5419 241.31 75.2185 241.31 74.8951 241.31C74.6256 241.31 74.383 241.283 74.1405 241.283H72.4157C70.071 241.283 67.8341 239.262 67.8341 236.298V223.119C67.8341 220.182 70.0979 218.133 72.4157 218.133H75.2724C77.9404 218.133 79.8808 220.559 79.8808 223.146V226.326H75.7036C75.7036 225.814 75.7036 225.275 75.6766 224.763C75.6766 224.574 75.6766 224.413 75.6227 224.224C75.5958 223.766 75.5419 223.308 75.488 222.877C75.4341 221.825 74.8681 221.448 73.9249 221.448C73.6823 221.448 73.4398 221.475 73.1972 221.475C72.4157 221.61 71.9844 222.203 71.9844 222.984V235.92C71.9844 236.729 72.1731 237.942 73.1972 237.942ZM86.4027 232.363V241.014H82.3333V218.403H88.7744C89.1247 218.403 89.4751 218.403 89.8524 218.43C92.4396 218.43 94.4069 220.747 94.4339 223.281V224.413C94.4339 225.518 94.4069 226.65 94.4069 227.754C94.38 229.533 93.4367 231.069 92.1431 231.878L95.1076 241.014H90.9573L88.2354 232.363H86.4027ZM88.6666 221.691H86.4027V229.345H88.9361C89.7446 229.345 90.0949 228.698 90.1758 227.997C90.2297 227.189 90.2836 226.353 90.2836 225.545C90.2836 224.709 90.2297 223.901 90.1758 223.092C90.068 222.149 89.5829 221.691 88.6666 221.691ZM105.564 218.403L111.008 241.014H106.885L105.834 236.19H101.387L100.309 241.014H96.2126L101.63 218.403H105.564ZM103.597 226.111L102.061 233.144H105.16L103.597 226.111ZM124.726 228.536L122.381 236.567H119.039L116.695 228.536V241.014H112.625V218.403H116.856L120.71 230.53L124.591 218.403H128.795V241.014H124.726V228.536ZM143.294 228.536L140.95 236.567H137.608L135.263 228.536V241.014H131.194V218.403H135.425L139.279 230.53L143.16 218.403H147.364V241.014H143.294V228.536ZM158.629 218.403L164.073 241.014H159.95L158.898 236.19H154.452L153.374 241.014H149.277L154.694 218.403H158.629ZM156.662 226.111L155.125 233.144H158.225L156.662 226.111ZM169.786 232.363V241.014H165.717V218.403H172.158C172.508 218.403 172.859 218.403 173.236 218.43C175.823 218.43 177.79 220.747 177.817 223.281V224.413C177.817 225.518 177.79 226.65 177.79 227.754C177.764 229.533 176.82 231.069 175.527 231.878L178.491 241.014H174.341L171.619 232.363H169.786ZM172.05 221.691H169.786V229.345H172.32C173.128 229.345 173.478 228.698 173.559 227.997C173.613 227.189 173.667 226.353 173.667 225.545C173.667 224.709 173.613 223.901 173.559 223.092C173.452 222.149 172.966 221.691 172.05 221.691Z" fill="#111111"/>
<path d="M218.866 221.807H214.308V241.31H209.391V221.807H204.832V218.161H218.866V221.807ZM213.755 240.758V221.255H218.313V218.713H205.385V221.255H209.943V240.758H213.755ZM225.385 232.636V241.31H220.468V218.161H227.098C227.485 218.161 227.871 218.133 228.231 218.133C228.645 218.133 229.059 218.189 229.446 218.299C231.38 218.852 233.148 220.758 233.092 223.161V224.183C233.092 225.371 233.065 226.559 233.092 227.747C233.148 229.57 232.153 231.2 230.938 232.084L233.921 241.31H228.894L226.242 232.664C225.938 232.636 225.661 232.636 225.385 232.636ZM224.833 232.084L226.628 232.111L229.308 240.758H233.148L230.302 231.89L230.606 231.642C231.794 230.785 232.54 229.321 232.54 227.857V223.161C232.54 220.785 230.634 218.686 228.231 218.686L221.021 218.713V240.758H224.833V232.084ZM224.833 221.504H227.153C228.313 221.504 228.617 222.691 228.617 223.299V227.857C228.617 228.686 228.258 229.625 227.291 229.625L224.833 229.598V221.504ZM225.385 222.056V229.045C226.048 229.045 226.656 229.073 227.291 229.073C227.899 229.073 228.065 228.354 228.065 227.857V223.299C228.092 222.636 227.678 222.028 227.153 222.056H225.385ZM240.22 231.006V237.664H246.463V241.31H235.302V218.161H246.463V221.807L240.22 221.78V227.415H244.142V231.006H240.22ZM243.59 230.454V227.968H239.667V221.227L245.91 221.255V218.713H235.855V240.758H245.91V238.216H239.667V230.454H243.59ZM262.568 241.31H257.568L254.308 230.841L253.286 232.084V241.31H248.341V218.161H253.286L253.314 225.509C255.054 222.802 256.021 221.034 257.623 218.161H262.761L257.844 226.448L262.568 241.31ZM252.734 231.863L254.557 229.708L257.982 240.758H261.794L257.236 226.393L261.794 218.713H257.955C256.601 221.117 255.275 223.492 253.756 225.813L252.761 227.388L252.734 218.713H248.894V240.758H252.734V231.863ZM278.646 241.31H273.645L270.386 230.841L269.364 232.084V241.31H264.419V218.161H269.364L269.391 225.509C271.132 222.802 272.098 221.034 273.701 218.161H278.839L273.922 226.448L278.646 241.31ZM268.811 231.863L270.634 229.708L274.06 240.758H277.872L273.314 226.393L277.872 218.713H274.032C272.679 221.117 271.353 223.492 269.833 225.813L268.839 227.388L268.811 218.713H264.971V240.758H268.811V231.863ZM285.414 231.006V237.664H291.657V241.31H280.496V218.161H291.657V221.807L285.414 221.78V227.415H289.336V231.006H285.414ZM288.784 230.454V227.968H284.861V221.227L291.104 221.255V218.713H281.049V240.758H291.104V238.216H284.861V230.454H288.784ZM298.452 232.636V241.31H293.535V218.161H300.165C300.552 218.161 300.939 218.133 301.298 218.133C301.712 218.133 302.126 218.189 302.513 218.299C304.447 218.852 306.215 220.758 306.16 223.161V224.183C306.16 225.371 306.132 226.559 306.16 227.747C306.215 229.57 305.22 231.2 304.005 232.084L306.988 241.31H301.961L299.309 232.664C299.005 232.636 298.729 232.636 298.452 232.636ZM297.9 232.084L299.695 232.111L302.375 240.758H306.215L303.37 231.89L303.673 231.642C304.861 230.785 305.607 229.321 305.607 227.857V223.161C305.607 220.785 303.701 218.686 301.298 218.686L294.088 218.713V240.758H297.9V232.084ZM297.9 221.504H300.22C301.381 221.504 301.684 222.691 301.684 223.299V227.857C301.684 228.686 301.325 229.625 300.358 229.625L297.9 229.598V221.504ZM298.452 222.056V229.045C299.115 229.045 299.723 229.073 300.358 229.073C300.966 229.073 301.132 228.354 301.132 227.857V223.299C301.16 222.636 300.745 222.028 300.22 222.056H298.452Z" fill="#111111"/>
</g>
<defs>
<clipPath id="clip0_102_7">
<rect width="374.085" height="380.22" fill="white"/>
</clipPath>
</defs>
</svg>
